<svg xmlns="http://www.w3.org/2000/svg" width="1600" height="900" viewBox="0 0 1600 900">
  <defs>
    <linearGradient id="g" x1="0" y1="1" x2="1" y2="0">
      <stop offset="0" stop-color="#0E1A17"/>
      <stop offset="0.5" stop-color="#182623"/>
      <stop offset="1" stop-color="#0E1A17"/>
    </linearGradient>
    <radialGradient id="mist" cx="70%" cy="30%" r="78%">
      <stop offset="0" stop-color="#F7F5F0" stop-opacity="0.06"/>
      <stop offset="0.55" stop-color="#F7F5F0" stop-opacity="0.02"/>
      <stop offset="1" stop-color="#0E1A17" stop-opacity="0.92"/>
    </radialGradient>
    <filter id="noise" x="-20%" y="-20%" width="140%" height="140%">
      <feTurbulence type="fractalNoise" baseFrequency="0.75" numOctaves="4" stitchTiles="stitch"/>
      <feColorMatrix type="matrix" values="
        0 0 0 0 0.08
        0 0 0 0 0.16
        0 0 0 0 0.14
        0 0 0 0.16 0"/>
    </filter>
    <linearGradient id="goldLine" x1="0" y1="0" x2="0" y2="1">
      <stop offset="0" stop-color="#C8A96A" stop-opacity="0"/>
      <stop offset="0.5" stop-color="#C8A96A" stop-opacity="0.55"/>
      <stop offset="1" stop-color="#C8A96A" stop-opacity="0"/>
    </linearGradient>
  </defs>
  <rect width="1600" height="900" fill="url(#g)"/>
  <rect width="1600" height="900" fill="url(#mist)"/>
  <g opacity="0.26" filter="url(#noise)">
    <rect width="1600" height="900" fill="#000"/>
  </g>
  <g fill="none" stroke="#F7F5F0" stroke-opacity="0.07" stroke-width="1">
    <path d="M-80 240 C 160 340, 420 220, 660 320 S 1060 420, 1680 300"/>
    <path d="M-80 280 C 160 380, 420 260, 660 360 S 1060 460, 1680 340"/>
    <path d="M-80 320 C 160 420, 420 300, 660 400 S 1060 500, 1680 380"/>
  </g>
  <rect x="80" y="80" width="2" height="740" fill="url(#goldLine)" opacity="0.55"/>
</svg>

