<svg xmlns="http://www.w3.org/2000/svg" width="1600" height="900" viewBox="0 0 1600 900">
  <defs>
    <linearGradient id="g" x1="0" y1="0" x2="1" y2="1">
      <stop offset="0" stop-color="#0E1A17"/>
      <stop offset="0.55" stop-color="#182623"/>
      <stop offset="1" stop-color="#0E1A17"/>
    </linearGradient>
    <radialGradient id="v" cx="30%" cy="70%" r="80%">
      <stop offset="0" stop-color="#F7F5F0" stop-opacity="0.06"/>
      <stop offset="0.55" stop-color="#C8A96A" stop-opacity="0.07"/>
      <stop offset="1" stop-color="#0E1A17" stop-opacity="0.94"/>
    </radialGradient>
    <filter id="noise" x="-20%" y="-20%" width="140%" height="140%">
      <feTurbulence type="fractalNoise" baseFrequency="0.9" numOctaves="3" stitchTiles="stitch"/>
      <feColorMatrix type="matrix" values="
        0 0 0 0 0.08
        0 0 0 0 0.16
        0 0 0 0 0.14
        0 0 0 0.18 0"/>
    </filter>
    <linearGradient id="gold" x1="0" y1="0" x2="1" y2="0">
      <stop offset="0" stop-color="#C8A96A" stop-opacity="0"/>
      <stop offset="0.5" stop-color="#C8A96A" stop-opacity="0.55"/>
      <stop offset="1" stop-color="#C8A96A" stop-opacity="0"/>
    </linearGradient>
  </defs>
  <rect width="1600" height="900" fill="url(#g)"/>
  <rect width="1600" height="900" fill="url(#v)"/>
  <g opacity="0.28" filter="url(#noise)">
    <rect width="1600" height="900" fill="#000"/>
  </g>
  <g fill="none" stroke="#F7F5F0" stroke-opacity="0.08" stroke-width="1">
    <path d="M-40 680 C 240 610, 440 740, 720 660 S 1220 560, 1660 640"/>
    <path d="M-40 720 C 220 650, 460 790, 740 710 S 1220 610, 1660 700"/>
    <path d="M-40 760 C 260 700, 470 840, 760 760 S 1220 660, 1660 760"/>
  </g>
  <rect x="0" y="0" width="1600" height="900" fill="none" stroke="url(#gold)" stroke-width="2" opacity="0.35"/>
</svg>

